# xmcd
#
# Track frame offsets:
# 150
# 16072
# 30052
# 43714
# 56607
#
# Disc length: 975 seconds
#
#
# Revision: 0
# Processed by: cddbd v1.4PL0 Copyright (c) Steve Scherf et al.
# Submitted via: FreeRIP 2.51 
#
DISCID=2c03cd05
DTITLE=Tracy Byrd - Crown Royal Limited Edition
DYEAR=1998
DGENRE=Country
TTITLE0=I'm From the Country
TTITLE1=On Again, Off Again
TTITLE2=Watermelon Crawl
TTITLE3=Lifestyles of the Not So Rich and Famous
TTITLE4=Big Love
EXTD=
EXTT0=
EXTT1=
EXTT2=
EXTT3=
EXTT4=
PLAYORDER=
